<?xml version="1.0" encoding="iso-8859-1" standalone="no"?> 
<?xml-stylesheet href="FreeBody.css" type="text/css"?> 
<svg xmlns="http://www.w3.org/2000/svg" xmlns:xlink="http://www.w3.org/1999/xlink" width="51.42107pt" height="115.84804pt" viewBox="-24.66037 -63.32178 51.42107 115.84804 "> 
<g transform="translate(0, 52.52626 ) scale(1,-1) translate(0,63.32178 )"> 
       <g> 
 <g stroke="rgb(0.0%,0.0%,0.0%)"> 
 <g fill="rgb(0.0%,0.0%,0.0%)"> 
 <g stroke-width="0.4pt"> 
 <g> 
 <g> 
 <g stroke="rgb(0.0%,0.0%,0.0%)"> 
 <g stroke-width="0.8pt"> 
 <g> 
 <g stroke="rgb(0.0%,0.0%,0.0%)"> 
 <g stroke-width="0.8pt"> 
 <path d=" M  -7.11317 -7.11317 h  14.22635 v  14.22635 h  -14.22635 Z  " style="fill:none"/> 
 </g> 
 </g> 
 </g> 
 <g> 
 <g transform="matrix(1.0,0.0,0.0,1.0,0.0,0.0)"> 
 <g fill="rgb(0.0%,0.0%,0.0%)"> 
 <text style="stroke:none" transform="scale(1,-1) translate(0.0,0)" text-anchor="middle"  font-size="10"> 
</text> 
</g> 
 </g> 
 </g> 
 </g> 
 </g> 
 </g> 
 <g> 
 <g stroke-dasharray="3.0pt,2.0pt" stroke-dashoffset="0.0pt"> 
 <g stroke="rgb(50.0%,50.0%,50.0%)"> 
 <g fill="rgb(50.0%,50.0%,50.0%)"> 
 <path d=" M  0.0 -7.51317 L  0.0 -56.4455  " style="fill:none"/> 
 <g> 
 <g transform="matrix(0.0,-1.0,1.0,0.0,0.0,-56.4455)"> 
 <g> 
 <g stroke-width="0.31999pt"> 
 <g stroke-dasharray="none" stroke-dashoffset="0.0pt"> 
 <g stroke-linecap="round"> 
 <g stroke-linejoin="round"> 
 <path d=" M  -1.19998 1.59998 C  -1.09998 0.99998 0.0 0.09999 0.29999 0.0 C  0.0 -0.09999 -1.09998 -0.99998 -1.19998 -1.59998  " style="fill:none"/> 
 </g> 
 </g> 
 </g> 
 </g> 
 </g> 
 </g> 
 </g> 
 <g> 
 <g> 
 <g transform="matrix(1.0,0.0,0.0,1.0,-10.72737,-59.15549)"> 
 <g fill="rgb(50.0%,50.0%,50.0%)"> 
 <text style="stroke:none" transform="scale(1,-1) translate(3.5972,0)" text-anchor="middle"  font-size="10"> 
<tspan font-family="cmr" font-size="9">+</tspan></text> 
</g> 
 </g> 
 </g> 
 </g> 
 </g> 
 </g> 
 </g> 
 </g> 
 <g> 
 <g stroke="rgb(0.0%,0.0%,100.0%)"> 
 <g fill="rgb(0.0%,0.0%,100.0%)"> 
 <path d=" M  0.0 7.51317 L  0.0 32.36597  " style="fill:none"/> 
 <g> 
 <g transform="matrix(0.0,1.0,-1.0,0.0,0.0,32.36597)"> 
 <g> 
 <path d=" M  3.59995 0.0 C  2.53328 0.2 0.79999 0.79999 -0.4 1.49997 L  -0.4 -1.49997 C  0.79999 -0.79999 2.53328 -0.2 3.59995 0.0  " style="stroke:none"/> 
 </g> 
 </g> 
 </g> 
 <g> 
 <g> 
 <g transform="matrix(1.0,0.0,0.0,1.0,-21.3274,42.35997)"> 
 <g fill="rgb(0.0%,0.0%,0.0%)"> 
 <text style="stroke:none" transform="scale(1,-1) translate(21.3274,0)" text-anchor="middle"  font-size="10"> 
<tspan font-family="cmmi" font-size="10">F</tspan><tspan baseline-shift="sub"><tspan font-family="cmmi" font-size="7">up</tspan></tspan> + <tspan font-family="cmmi" font-size="10">F</tspan><tspan baseline-shift="sub"><tspan font-family="cmmi" font-size="7">n</tspan></tspan></text> 
</g> 
 </g> 
 </g> 
 </g> 
 <path d=" M  0.0 -7.51317 L  0.0 -32.36597  " style="fill:none"/> 
 <g> 
 <g transform="matrix(0.0,-1.0,1.0,0.0,0.0,-32.36597)"> 
 <g> 
 <path d=" M  3.59995 0.0 C  2.53328 0.2 0.79999 0.79999 -0.4 1.49997 L  -0.4 -1.49997 C  0.79999 -0.79999 2.53328 -0.2 3.59995 0.0  " style="stroke:none"/> 
 </g> 
 </g> 
 </g> 
 <g> 
 <g> 
 <g transform="matrix(1.0,0.0,0.0,1.0,3.53297,-37.14647)"> 
 <g fill="rgb(0.0%,0.0%,0.0%)"> 
 <text style="stroke:none" transform="scale(1,-1) translate(9.94737,0)" text-anchor="middle"  font-size="10"> 
<tspan font-family="cmmi" font-size="10">m</tspan><tspan baseline-shift="sub"><tspan font-family="cmmi" font-size="7">L</tspan> </tspan> <tspan font-family="cmmi" font-size="10">g</tspan></text> 
</g> 
 </g> 
 </g> 
 </g> 
 </g> 
 </g> 
 </g> 
 </g> 
 </g> 
 </g> 
 </g> 
 </g> 
 
             </g> 
</svg> 
