<?xml version="1.0" encoding="iso-8859-1" standalone="no"?> 
<?xml-stylesheet href="StateDiag.css" type="text/css"?> 
<svg xmlns="http://www.w3.org/2000/svg" xmlns:xlink="http://www.w3.org/1999/xlink" width="152.64952pt" height="218.14404pt" viewBox="-15.91763 -109.07202 152.64952 218.14404 "> 
<g transform="translate(0, 109.07202 ) scale(1,-1) translate(0,109.07202 )"> 
     <g> 
 <g stroke="rgb(0.0%,0.0%,0.0%)"> 
 <g fill="rgb(0.0%,0.0%,0.0%)"> 
 <g stroke-width="0.4pt"> 
 <g> 
 <g stroke-width="0.8pt"> 
 <g> 
 <g fill="rgb(100.0%,100.0%,100.0%)"> 
 <g> 
 <g fill="rgb(100.0%,100.0%,100.0%)"> 
 <path d=" M  12.50002 0.0 C  12.50002 6.90366 6.90366 12.50002 0.0 12.50002 C  -6.90366 12.50002 -12.50002 6.90366 -12.50002 0.0 C  -12.50002 -6.90366 -6.90366 -12.50002 0.0 -12.50002 C  6.90366 -12.50002 12.50002 -6.90366 12.50002 0.0 Z M  0.0 0.0  " style="stroke:none"/> 
 </g> 
 </g> 
 <g> 
 <g transform="matrix(1.0,0.0,0.0,1.0,-5.54286,-4.92)"> 
 <g fill="rgb(0.0%,0.0%,0.0%)"> 
 <text style="stroke:none" transform="scale(1,-1) translate(5.54286,0)" text-anchor="middle"  font-size="10"> 
<tspan font-family="cmmi" font-size="12">F</tspan></text> 
</g> 
 </g> 
 </g> 
 </g> 
 </g> 
 <g> 
 <g fill="rgb(100.0%,100.0%,100.0%)"> 
 <g> 
 <g fill="rgb(100.0%,100.0%,100.0%)"> 
 <path d=" M  109.07202 96.572 C  109.07202 103.47566 103.47566 109.07202 96.572 109.07202 C  89.66835 109.07202 84.07199 103.47566 84.07199 96.572 C  84.07199 89.66835 89.66835 84.07199 96.572 84.07199 C  103.47566 84.07199 109.07202 89.66835 109.07202 96.572 Z M  96.572 96.572  " style="stroke:none"/> 
 </g> 
 </g> 
 <g> 
 <g transform="matrix(1.0,0.0,0.0,1.0,90.85289,91.65201)"> 
 <g fill="rgb(0.0%,0.0%,0.0%)"> 
 <text style="stroke:none" transform="scale(1,-1) translate(5.71912,0)" text-anchor="middle"  font-size="10"> 
<tspan font-family="cmmi" font-size="12">B</tspan></text> 
</g> 
 </g> 
 </g> 
 </g> 
 </g> 
 <g> 
 <g fill="rgb(100.0%,100.0%,100.0%)"> 
 <g> 
 <g fill="rgb(100.0%,100.0%,100.0%)"> 
 <path d=" M  109.07202 -96.572 C  109.07202 -89.66835 103.47566 -84.07199 96.572 -84.07199 C  89.66835 -84.07199 84.07199 -89.66835 84.07199 -96.572 C  84.07199 -103.47566 89.66835 -109.07202 96.572 -109.07202 C  103.47566 -109.07202 109.07202 -103.47566 109.07202 -96.572 Z M  96.572 -96.572  " style="stroke:none"/> 
 </g> 
 </g> 
 <g> 
 <g transform="matrix(1.0,0.0,0.0,1.0,90.52274,-101.492)"> 
 <g fill="rgb(0.0%,0.0%,0.0%)"> 
 <text style="stroke:none" transform="scale(1,-1) translate(6.04927,0)" text-anchor="middle"  font-size="10"> 
<tspan font-family="cmmi" font-size="12">D</tspan></text> 
</g> 
 </g> 
 </g> 
 </g> 
 </g> 
 <g> 
 <path d=" M  3.34506 12.48486 C  14.91884 55.67113 40.89987 81.65689 81.7257 92.59431  " style="fill:none"/> 
 <g> 
 <g transform="matrix(0.96782,0.25928,-0.25928,0.96782,81.7257,92.59431)"> 
 <g> 
 <g stroke-dasharray="none" stroke-dashoffset="0.0pt"> 
 <g stroke-linejoin="round"> 
 <path d=" M  1.03998 0.0 C  -0.26 0.26 -1.55997 0.77998 -3.11993 1.68996 C  -1.55997 0.51999 -1.55997 -0.51999 -3.11993 -1.68996 C  -1.55997 -0.77998 -0.26 -0.26 1.03998 0.0 Z  " /> 
 </g> 
 </g> 
 </g> 
 </g> 
 </g> 
 <g> 
 <g> 
 <g transform="matrix(1.0,0.0,0.0,1.0,4.97604,70.60492)"> 
 <g fill="rgb(0.0%,0.0%,0.0%)"> 
 <text style="stroke:none" transform="scale(1,-1) translate(11.576,0)" text-anchor="middle"  font-size="10"> 
<tspan font-family="cmmi" font-size="12">r</tspan><tspan baseline-shift="sub"><tspan font-family="cmmi" font-size="10">FB</tspan></tspan></text> 
</g> 
 </g> 
 </g> 
 </g> 
 </g> 
 <g> 
 <path d=" M  9.12169 -9.12169 L  85.72437 -85.725  " style="fill:none"/> 
 <g> 
 <g transform="matrix(0.70712,-0.7071,0.7071,0.70712,85.72437,-85.725)"> 
 <g> 
 <g stroke-dasharray="none" stroke-dashoffset="0.0pt"> 
 <g stroke-linejoin="round"> 
 <path d=" M  1.03998 0.0 C  -0.26 0.26 -1.55997 0.77998 -3.11993 1.68996 C  -1.55997 0.51999 -1.55997 -0.51999 -3.11993 -1.68996 C  -1.55997 -0.77998 -0.26 -0.26 1.03998 0.0 Z  " /> 
 </g> 
 </g> 
 </g> 
 </g> 
 </g> 
 <g> 
 <g> 
 <g transform="matrix(1.0,0.0,0.0,1.0,52.01868,-42.39304)"> 
 <g fill="rgb(0.0%,0.0%,0.0%)"> 
 <text style="stroke:none" transform="scale(1,-1) translate(11.81107,0)" text-anchor="middle"  font-size="10"> 
<tspan font-family="cmmi" font-size="12">r</tspan><tspan baseline-shift="sub"><tspan font-family="cmmi" font-size="10">FD</tspan></tspan></text> 
</g> 
 </g> 
 </g> 
 </g> 
 </g> 
 <g> 
 <path d=" M  93.22694 84.08714 C  81.65317 40.90088 55.67213 14.91512 14.84631 3.97769  " style="fill:none"/> 
 <g> 
 <g transform="matrix(-0.96782,-0.25928,0.25928,-0.96782,14.84631,3.97769)"> 
 <g> 
 <g stroke-dasharray="none" stroke-dashoffset="0.0pt"> 
 <g stroke-linejoin="round"> 
 <path d=" M  1.03998 0.0 C  -0.26 0.26 -1.55997 0.77998 -3.11993 1.68996 C  -1.55997 0.51999 -1.55997 -0.51999 -3.11993 -1.68996 C  -1.55997 -0.77998 -0.26 -0.26 1.03998 0.0 Z  " /> 
 </g> 
 </g> 
 </g> 
 </g> 
 </g> 
 <g> 
 <g> 
 <g transform="matrix(1.0,0.0,0.0,1.0,68.44391,21.92703)"> 
 <g fill="rgb(0.0%,0.0%,0.0%)"> 
 <text style="stroke:none" transform="scale(1,-1) translate(11.576,0)" text-anchor="middle"  font-size="10"> 
<tspan font-family="cmmi" font-size="12">r</tspan><tspan baseline-shift="sub"><tspan font-family="cmmi" font-size="10">BF</tspan> </tspan></text> 
</g> 
 </g> 
 </g> 
 </g> 
 </g> 
 <g> 
 <path d=" M  96.572 83.672 L  96.572 -81.23203  " style="fill:none"/> 
 <g> 
 <g transform="matrix(0.0,-1.0,1.0,0.0,96.572,-81.23203)"> 
 <g> 
 <g stroke-dasharray="none" stroke-dashoffset="0.0pt"> 
 <g stroke-linejoin="round"> 
 <path d=" M  1.03998 0.0 C  -0.26 0.26 -1.55997 0.77998 -3.11993 1.68996 C  -1.55997 0.51999 -1.55997 -0.51999 -3.11993 -1.68996 C  -1.55997 -0.77998 -0.26 -0.26 1.03998 0.0 Z  " /> 
 </g> 
 </g> 
 </g> 
 </g> 
 </g> 
 <g> 
 <g> 
 <g transform="matrix(1.0,0.0,0.0,1.0,100.30498,-43.856)"> 
 <g fill="rgb(0.0%,0.0%,0.0%)"> 
 <text style="stroke:none" transform="scale(1,-1) translate(11.94475,0)" text-anchor="middle"  font-size="10"> 
<tspan font-family="cmmi" font-size="12">r</tspan><tspan baseline-shift="sub"><tspan font-family="cmmi" font-size="10">BD</tspan></tspan></text> 
</g> 
 </g> 
 </g> 
 </g> 
 </g> 
 <g> 
 <path d=" M  84.08714 -93.22694 C  40.89987 -81.65689 14.91884 -55.67113 3.97787 -14.84631  " style="fill:none"/> 
 <g> 
 <g transform="matrix(-0.25935,0.96782,-0.96782,-0.25935,3.97787,-14.84631)"> 
 <g> 
 <g stroke-dasharray="none" stroke-dashoffset="0.0pt"> 
 <g stroke-linejoin="round"> 
 <path d=" M  1.03998 0.0 C  -0.26 0.26 -1.55997 0.77998 -3.11993 1.68996 C  -1.55997 0.51999 -1.55997 -0.51999 -3.11993 -1.68996 C  -1.55997 -0.77998 -0.26 -0.26 1.03998 0.0 Z  " /> 
 </g> 
 </g> 
 </g> 
 </g> 
 </g> 
 <g> 
 <g> 
 <g transform="matrix(1.0,0.0,0.0,1.0,-12.58466,-51.62592)"> 
 <g fill="rgb(0.0%,0.0%,0.0%)"> 
 <text style="stroke:none" transform="scale(1,-1) translate(11.81107,0)" text-anchor="middle"  font-size="10"> 
<tspan font-family="cmmi" font-size="12">r</tspan><tspan baseline-shift="sub"><tspan font-family="cmmi" font-size="10">DF</tspan> </tspan></text> 
</g> 
 </g> 
 </g> 
 </g> 
 </g> 
 <g> 
 <path d=" M  103.04208 -85.36482 C  136.3319 -27.70503 136.3319 27.70503 104.266 83.24504  " style="fill:none"/> 
 <g> 
 <g transform="matrix(-0.50162,0.86877,-0.86877,-0.50162,104.266,83.24504)"> 
 <g> 
 <g stroke-dasharray="none" stroke-dashoffset="0.0pt"> 
 <g stroke-linejoin="round"> 
 <path d=" M  1.03998 0.0 C  -0.26 0.26 -1.55997 0.77998 -3.11993 1.68996 C  -1.55997 0.51999 -1.55997 -0.51999 -3.11993 -1.68996 C  -1.55997 -0.77998 -0.26 -0.26 1.03998 0.0 Z  " /> 
 </g> 
 </g> 
 </g> 
 </g> 
 </g> 
 <g> 
 <g> 
 <g transform="matrix(1.0,0.0,0.0,1.0,100.38696,-2.02)"> 
 <g fill="rgb(0.0%,0.0%,0.0%)"> 
 <text style="stroke:none" transform="scale(1,-1) translate(11.94475,0)" text-anchor="middle"  font-size="10"> 
<tspan font-family="cmmi" font-size="12">r</tspan><tspan baseline-shift="sub"><tspan font-family="cmmi" font-size="10">DB</tspan></tspan></text> 
</g> 
 </g> 
 </g> 
 </g> 
 </g> 
 </g> 
 </g> 
 </g> 
 </g> 
 </g> 
 </g> 
 
                                       </g> 
</svg> 
